<?xml version="1.0" encoding="UTF-8"?>
<svg id="b" data-name="Layer 2" xmlns="http://www.w3.org/2000/svg" viewBox="0 0 255.95 255.95">
  <defs>
    <style>
      .d {
        fill: #78ccc7;
      }
    </style>
  </defs>
  <g id="c" data-name="Layer 1">
    <g>
      <path class="d" d="m115.48,255.95c.15-.7-.41-.5-.71-.52-5.37-.22-10.53-1.54-15.75-2.67-5.41-1.17-10.54-3.14-15.78-4.85-7.05-2.3-13.56-5.74-20.01-9.27-3.93-2.15-7.61-4.73-11.16-7.5-3.23-2.51-6.41-5.05-9.47-7.77-4.62-4.1-8.99-8.45-12.93-13.2-1.21-1.46-2.54-2.85-3.42-4.57-.96-1.89-.73-3.13.92-4.41,2.61-2.04,5.2-4.11,7.84-6.1,3.11-2.33,6.17-4.73,9.26-7.09,4.92-3.76,10.08-7.23,14.73-11.36,1.67-1.49,3.61-2.67,5.4-4.03,2.97-2.25,5.9-4.55,8.86-6.81,2.25-1.72,4.51-3.41,6.77-5.12,1.4-1.06,2.77-2.17,4.21-3.18,2.11-1.48,6.46-.96,9.07,1.36,4.03,3.59,8.41,6.75,13.09,9.48,3.18,1.85,6.58,3.15,10.2,3.57,3.25.38,6.48-.11,9.63-1.06,4.36-1.32,8.45-3.29,12.39-5.51,3.2-1.81,6.15-4.07,9.24-6.08,3.87-2.51,7.8-4.91,11.64-7.46,5.22-3.46,10.37-7.02,15.56-10.54,3.95-2.68,7.85-5.44,11.88-8,2.37-1.51,4.66-3.23,7.34-4.17,1.93-.67,4.02-.55,6.02-.28,1.34.18,2.73.42,3.95,1.16,1.95,1.19,2.86,4.33,2.17,6.48-.8,2.5-2.61,3.87-4.68,5.18-4.27,2.72-8.48,5.55-12.69,8.37-5.5,3.7-10.99,7.39-16.5,11.08-6.65,4.46-13.2,9.12-20.1,13.19-4.76,2.81-9.37,5.95-14.45,8.14-5.79,2.5-11.72,4.65-18.27,3.97-2.35-.25-4.75.1-7.11-.07-3.35-.25-6.44-1.52-9.51-2.81-2.15-.91-4.1-2.17-6.14-3.28-2.97-1.61-5.57-3.66-8.05-5.9-1.21-1.09-2.21-.9-3.8.44-4.44,3.72-8.89,7.43-13.47,10.99-3.17,2.47-6.13,5.2-9.26,7.72-4.53,3.63-9.13,7.17-13.71,10.73-1.49,1.16-1.61,1.58-.2,2.87,4.95,4.53,9.84,9.13,15.4,12.97,5.2,3.6,10.68,6.67,16.33,9.48,4.73,2.35,9.68,4.19,14.75,5.68,5.21,1.53,10.45,2.93,15.78,3.96,2.16.42,4.4.43,6.59.78,2.12.34,4.29.6,6.36.42,4.06-.35,8.12-.04,12.15-.32,4.43-.31,8.86-.73,13.23-1.77,4.33-1.03,8.7-1.88,12.91-3.34,4.98-1.74,9.93-3.57,14.61-6,1.05-.54,2.19-.91,3.17-1.79.61-.55,1.94-.7,2.9-1.18,3.37-1.73,6.73-3.54,9.62-5.99,1.86-1.57,3.97-2.77,5.75-4.44,1.83-1.72,3.74-3.38,5.71-4.94,3.68-2.9,6.41-6.66,9.45-10.15,1.52-1.75,3.39-3.18,4.65-5.19,1.79-2.85,3.83-5.54,5.54-8.43,3.46-5.86,6.95-11.72,9.3-18.14,1.07-2.9,1.87-5.88,2.62-8.89.37-1.48.9-3.03,1.25-4.5.5-2.11.91-4.27,1.43-6.39.67-2.77,1.1-5.58,1.45-8.4.18-1.47.08-2.96.23-4.44.31-2.88.44-5.78.42-8.68-.03-3.76-.74-7.47-.84-11.21-.09-3.25-.64-6.43-1.27-9.58-1.18-5.94-2.89-11.73-4.99-17.41-1.74-4.71-4.05-9.13-6.31-13.61-1.01-2-1.79-4.14-3.08-5.98-4.43-6.34-8.78-12.74-13.82-18.62-2.46-2.87-5.49-5.13-8.34-7.57-3.15-2.69-6.57-5.04-9.82-7.61-.78-.62-1.7-1.05-2.55-1.58-1.13-.71-2.31-1.36-3.38-2.16-1.6-1.2-3.45-1.95-5.15-2.99-3.53-2.16-7.44-3.56-11.24-5.14-3.37-1.4-6.94-2.25-10.36-3.5-3.4-1.24-6.93-1.78-10.4-2.54-2.63-.58-5.39-.81-8.07-1.23-5.8-.91-11.61-.96-17.43-.76-3.63.12-7.26.51-10.87,1.08-4.49.71-8.94,1.55-13.35,2.71-6.14,1.61-12.16,3.6-17.9,6.22-4.11,1.87-8.05,4.19-11.84,6.74-2.98,2-6.09,3.83-8.92,6.04-6.07,4.73-11.95,9.66-16.66,15.85-1.87,2.46-4.11,4.61-6.01,7.06-2.97,3.83-5.53,7.9-7.71,12.23-1.78,3.53-3.68,6.99-5.27,10.61-1.72,3.95-3.15,7.99-4.25,12.16-.84,3.18-1.73,6.34-2.34,9.57-.4,2.14-.83,4.27-1.17,6.42-.89,5.77-.78,11.6-.92,17.41-.11,4.3.51,8.5.89,12.73.33,3.66,1.29,7.21,1.78,10.85.19,1.4,1.64,2.08,3.45,1.53,2.98-.92,5.94-1.91,8.89-2.93,5.86-2.03,11.67-4.19,17.4-6.57,2.39-.99,4.95-1.56,7.41-2.38,3.46-1.15,6.9-2.34,10.35-3.53,1.51-.52,1.97-1.1,1.69-2.79-.26-1.61-.24-3.22-.26-4.82-.05-3.83-.27-7.69.13-11.48.53-5.06,2.3-9.82,4.65-14.36,2.37-4.58,5.79-8.23,9.75-11.45,2.76-2.25,5.56-4.46,8.63-6.27,3.38-1.99,6.76-3.96,10.45-5.39,2.54-.98,4.97-2.25,7.39-3.51,2.95-1.55,6.04-2.79,9.07-4.18,4.67-2.14,9.34-4.3,13.99-6.48,2.39-1.12,4.73-2.35,7.13-3.46,2.48-1.15,5.05-2.13,7.48-3.36,1.99-1.01,4.1-1.7,6.09-2.7,1.91-.95,3.82-2.15,5.9-2.61,2.32-.51,4.7,0,6.73,1.26,1,.62,1.04,2,1.15,3.1.45,4.41-1.31,7.86-4.8,10.51-.97.73-2.06,1.14-3.15,1.62-3.26,1.44-6.51,2.9-9.77,4.34-3.1,1.36-6.3,2.5-9.28,4.11-2.01,1.09-4.1,2.01-6.16,2.97-2.16,1-4.22,2.17-6.38,3.15-5.11,2.33-10.17,4.76-15.37,6.92-5.84,2.43-11.61,5.08-16.7,8.89-4.05,3.03-7.54,6.63-9.88,11.22-1.31,2.56-1.62,5.31-2.02,8.1-.5,3.41-.07,6.78.06,10.16.08,2.2.47,4.39.87,6.56.64,3.53.29,6.74-2.67,9.19-1.56,1.29-3.47,1.97-5.32,2.7-3.44,1.35-6.93,2.6-10.42,3.83-9.14,3.24-18.03,7.12-27.2,10.29-2.34.81-4.72,1.57-6.98,2.54-5.75,2.46-11.72,4.28-17.54,6.5-2.83,1.08-4.78-.49-5.64-2.89-1.37-3.8-2.73-7.61-3.69-11.56-1.16-4.76-2.09-9.56-2.94-14.38-.23-1.3-.41-2.59-.47-3.9-.01-.32.05-.74-.52-.59v-22.75c.31.33.46-.04.48-.19.03-.29-.1-.54-.48-.31v-2c.71.06.59-.42.56-.86-.03-.37-.1-.76-.02-1.12.47-2.35.7-4.73,1.18-7.08.94-4.6,1.66-9.25,2.87-13.78,1.01-3.77,2.48-7.4,3.88-11.04,1.68-4.38,3.57-8.66,5.6-12.89,1.59-3.31,3.26-6.63,5.19-9.7,1.49-2.37,3.18-4.72,4.99-6.94,2.2-2.71,4.3-5.49,6.5-8.19,2.79-3.42,5.91-6.52,9.09-9.56,4.51-4.31,9.43-8.13,14.47-11.82,5.89-4.31,12.22-7.85,18.81-10.89,6.08-2.81,12.36-5.19,18.81-7.08,2.59-.76,5.21-1.45,7.84-2.01,3.08-.65,6.19-1.23,9.31-1.65,2.57-.35,5.09-1.11,7.71-1.11.31,0,.86.21.7-.51h1.5c-.24.52.19.48.45.48.27,0,.56-.09.3-.48h16.5c-.18.11-.2.24-.03.37.33.26.73.16,1.09.13,1.54-.14,3.07.12,4.57.31,4.55.58,9.08,1.35,13.52,2.48,2.63.67,5.34.89,7.95,1.65,3.27.95,6.5,2,9.65,3.32,3.43,1.44,6.96,2.68,10.35,4.2,4.46,2,8.53,4.67,12.63,7.33,5.15,3.33,10.24,6.67,14.81,10.81,4.26,3.86,8.54,7.65,12.43,11.91,4.49,4.91,8.54,10.15,12.18,15.68,4.04,6.14,7.53,12.59,10.28,19.42,1,2.49,1.93,5,2.84,7.52,2.15,5.91,3.7,11.99,4.92,18.15.63,3.15,1.2,6.31,1.56,9.51.21,1.92.5,3.82.48,5.76,0,.27-.27.91.5.67v14.75c-.13-.06-.23-.02-.23.12s.1.18.23.12v1.5c-.6-.2-.51.23-.51.56-.02,1.19-.22,2.41-.19,3.56.09,3.26-.82,6.38-1.09,9.58-.2,2.3-.87,4.57-1.37,6.85-.87,4-2.06,7.91-3.28,11.81-1.09,3.45-2.66,6.72-3.91,10.1-1.78,4.84-4.19,9.33-6.66,13.81-1.72,3.13-3.77,6.06-5.83,8.98-2.46,3.48-5.3,6.65-7.93,9.99-2.02,2.56-4.19,4.99-6.31,7.46-2.1,2.44-4.73,4.28-7.16,6.32-3.57,2.99-7.14,6-11.11,8.47-1.79,1.12-3.51,2.37-5.29,3.5-4.37,2.77-8.92,5.18-13.6,7.38-2.71,1.28-5.44,2.5-8.23,3.59-2.33.91-4.76,1.57-7.09,2.46-2.24.85-4.61,1.18-6.86,2-1.85.68-3.87.89-5.82,1.3-4.39.92-8.79,1.79-13.28,2-.31.01-.87-.2-.7.51h-24.25Z"/>
      <path class="d" d="m119.73,0c.27.38-.03.47-.3.48-.27,0-.69.05-.45-.48h.75Z"/>
      <path class="d" d="m0,118.23c.38-.23.51.02.48.31-.01.15-.16.52-.48.19v-.5Z"/>
      <path class="d" d="m255.95,134.23c-.13.06-.23.02-.23-.12s.1-.18.23-.12v.25Z"/>
      <path class="d" d="m93.26,126.68c-.4-3.1,1.52-4.76,3.94-6.05,2.22-1.18,4.27-2.62,6.37-3.98,1.97-1.28,4.17-2.06,6.24-3.11,2.93-1.49,5.75-3.19,8.65-4.72,2.27-1.2,4.61-2.27,6.89-3.45,3.41-1.76,6.84-3.48,10.17-5.37,3.17-1.8,6.3-3.68,9.41-5.58.98-.6,2.31-1.04,3.35-1.57,2.75-1.4,5.81-2.17,8.3-4.11,1.86-1.45,3.89-2.03,6.39-1.64,1.54.24,2.96.39,4.28,1.27,1.71,1.14,2.18,2.86,2.47,4.72.52,3.29-1.32,5.33-3.69,7.11-2.38,1.79-5.04,3.09-7.62,4.57-2.37,1.36-4.89,2.4-7.28,3.71-2.28,1.25-4.56,2.54-6.86,3.76-4.71,2.5-9.36,5.09-14.05,7.61-4.06,2.19-8.1,4.43-12.24,6.46-4.68,2.31-9.24,4.86-13.91,7.17-3.21,1.59-6.96,1.04-9.07-1.44-1.29-1.51-2.01-3.28-1.75-5.35Z"/>
      <path class="d" d="m175.03,109.78c2.2-.33,3.99.39,5.56,1.86,1.94,1.81,1.97,4.09,1.79,6.48-.21,2.67-1.95,4.04-4.1,5.21-3.37,1.84-6.68,3.8-10,5.73-4.09,2.39-8.22,4.71-12.33,7.06-2.75,1.57-5.44,3.28-8.17,4.89-4.16,2.46-8.29,4.98-12.58,7.24-3.21,1.7-6.25,3.74-9.43,5.5-2.94,1.63-5.76,3.49-8.91,4.73-4.24,1.67-8.29-.82-9.6-4.91-1.08-3.36.72-6.48,3.62-8.28,3.42-2.13,6.95-4.08,10.44-6.09,5.9-3.39,11.83-6.74,17.71-10.17,4.23-2.47,8.35-5.11,12.6-7.54,3.68-2.1,7.34-4.22,11.16-6.07,1.14-.56,2.15-1.5,3.21-2.18,2.75-1.76,5.41-4.03,9.04-3.46Z"/>
    </g>
  </g>
</svg>